PathFileType	4	(x/y/z)	S06_PSF_T06
DataRate	CameraRate	NumFrames	NumMarkers	Units	OrigDataRate	OrigDataStartFrame	OrigNumFrames
240	240	11	51	mm	240	1	420
Frame#	Time	Sternum			R.Acromium			L.Acromium			Top.Head			R.ASIS			L.ASIS			R.PSIS			L.PSIS			R.Great.Tro			L.Great.Tro			R.Iliac.Crest			L.Iliac.Crest			V.Sacral			R.Thigh.Upper.Post			R.Thigh.Lower.Ant			R.Thigh.Lower.Post			R.Thigh.Upper.Ant			R.Knee.Lat			R.Knee.Med			R.Shank.Upper.Post			R.Shank.Lower.Ant			R.Shank.Lower.Post			R.Shank.Upper.Ant			R.Ankle.Lat			R.Ankle.Med			R.Heel.Upper			R.Heel.Med			R.Heel.Lat			R.Toe.Lat			R.Toe.Med			R.Toe.Tip			L.Thigh.Upper.Post			L.Thigh.Lower.Ant			L.Thigh.Lower.Post			L.Thigh.Upper.Ant			L.Knee.Lat			L.Knee.Med			L.Shank.Upper.Post			L.Shank.Lower.Ant			L.Shank.Lower.Post			L.Shank.Upper.Ant			L.Ankle.Lat			L.Ankle.Med			L.Heel.Upper			L.Heel.Med			L.Heel.Lat			L.Toe.Lat			L.Toe.Med			L.Toe.Tip			Cervical.Spine			Back			
		X1	Y1	Z1	X2	Y2	Z2	X3	Y3	Z3	X4	Y4	Z4	X5	Y5	Z5	X6	Y6	Z6	X7	Y7	Z7	X8	Y8	Z8	X9	Y9	Z9	X10	Y10	Z10	X11	Y11	Z11	X12	Y12	Z12	X13	Y13	Z13	X14	Y14	Z14	X15	Y15	Z15	X16	Y16	Z16	X17	Y17	Z17	X18	Y18	Z18	X19	Y19	Z19	X20	Y20	Z20	X21	Y21	Z21	X22	Y22	Z22	X23	Y23	Z23	X24	Y24	Z24	X25	Y25	Z25	X26	Y26	Z26	X27	Y27	Z27	X28	Y28	Z28	X29	Y29	Z29	X30	Y30	Z30	X31	Y31	Z31	X32	Y32	Z32	X33	Y33	Z33	X34	Y34	Z34	X35	Y35	Z35	X36	Y36	Z36	X37	Y37	Z37	X38	Y38	Z38	X39	Y39	Z39	X40	Y40	Z40	X41	Y41	Z41	X42	Y42	Z42	X43	Y43	Z43	X44	Y44	Z44	X45	Y45	Z45	X46	Y46	Z46	X47	Y47	Z47	X48	Y48	Z48	X49	Y49	Z49	X50	Y50	Z50	X51	Y51	Z51	

1	0	NaN	NaN	NaN	-1616.7	1493	516.74	-1641.8	1498.2	166.76	-1584.6	1810.1	337.57	NaN	NaN	NaN	NaN	NaN	NaN	-1743.2	1074	371.68	-1743.6	1075.5	292	-1621.5	980.3	522.88	-1623.9	972	163.95	-1642	1131.6	503.27	-1611.1	1123.9	182.55	-1758.6	1041.3	336.13	-1672.5	738	495.56	-1623.1	651.5	459.06	-1708.8	658.84	470.48	-1601	731.41	484.45	-1714.4	543.94	452.84	-1694.6	553.33	324.37	-1813.8	333.29	431.68	-1768.7	255.01	411.8	-1835.5	260.7	410.08	NaN	NaN	NaN	-1842.5	129.77	378.53	-1818.9	139.06	294.71	-1911.4	93.957	326.87	-1902.3	60.853	297.85	-1908.8	63.407	361.67	-1732.2	43.475	412.11	-1702.7	48.21	292.31	-1636.1	54.296	340.26	-1481.4	736.5	182.72	NaN	NaN	NaN	-1473.4	647.23	201.28	-1434.9	768.15	228.99	-1460.2	557.32	220.94	NaN	NaN	NaN	-1430.1	331.99	232.63	-1345.3	294.95	226.76	-1407.3	262.43	249.3	-1377.9	364.18	213.87	-1307.8	143.8	241.81	-1299.2	172.44	330.64	NaN	NaN	NaN	NaN	NaN	NaN	-1335.7	48.851	264.99	-1176.6	124.66	217.44	NaN	NaN	NaN	-1105.7	191.17	274.68	-1687.1	1549.3	345.87	-1743	1277.3	344.4
2	0.0041667	NaN	NaN	NaN	-1611.9	1492.3	516.62	-1637.3	1497.4	166.57	-1580.3	1809.5	337.45	NaN	NaN	NaN	NaN	NaN	NaN	-1738.3	1073.2	371.51	-1739.1	1074.8	291.8	-1616.9	979.79	522.79	-1619.1	971.28	163.91	-1637.2	1130.9	503.02	-1606.3	1123	182.38	-1753.8	1040.5	335.98	-1668.2	737.59	495.46	-1618.8	651.08	458.98	-1704.5	658.44	470.48	-1596.4	730.95	484.11	-1710.5	543.54	452.81	-1690.7	552.87	324.38	-1811.5	333.68	431.67	-1765.7	255.61	411.13	-1833.6	261.24	410.1	NaN	NaN	NaN	-1841.8	130.36	378.56	-1818.7	139.75	294.83	-1911	94.983	326.89	-1902.1	61.858	297.86	-1908.5	64.378	361.67	-1732.2	43.537	412.14	-1702.5	48.132	292.27	-1636.1	54.007	340.33	-1477.1	735.51	183.28	NaN	NaN	NaN	-1469.4	646.29	202.16	-1430.5	767.16	229.3	-1455.8	556.62	221.78	NaN	NaN	NaN	-1423.8	331.24	232.88	-1339.4	294.78	228.1	-1401.1	261.71	249.63	-1371	363.5	215.55	-1301.6	143.62	243.12	-1293.9	171.74	331.79	NaN	NaN	NaN	NaN	NaN	NaN	-1329.4	48.475	265.72	-1170.4	125.36	219.52	NaN	NaN	NaN	-1100.2	191.95	277.37	-1682.5	1548.7	345.65	-1738.3	1276.6	344.22
3	0.0083333	NaN	NaN	NaN	-1606.8	1491.6	516.48	-1632.6	1496.7	166.37	-1575.8	1808.9	337.33	NaN	NaN	NaN	NaN	NaN	NaN	-1733.3	1072.4	371.33	-1734.4	1074.1	291.61	-1612.1	979.26	522.7	-1614.2	970.54	163.87	-1632.3	1130.3	502.77	-1601.4	1122.1	182.2	-1748.8	1039.8	335.82	-1663.8	737.16	495.35	-1614.4	650.62	458.92	-1700	658.03	470.49	-1591.6	730.51	483.74	-1706.4	543.12	452.78	-1686.6	552.39	324.4	-1809.2	334.1	431.67	-1762.6	256.2	410.49	-1831.7	261.81	410.14	NaN	NaN	NaN	-1841	130.99	378.6	-1818.4	140.48	294.96	-1910.5	96.081	326.92	-1901.8	62.938	297.87	-1908.2	65.42	361.68	-1732.1	43.6	412.16	-1702.3	48.056	292.22	-1636	53.712	340.4	-1472.7	734.5	183.87	NaN	NaN	NaN	-1465.1	645.34	203.06	-1425.8	766.14	229.62	-1451.2	555.9	222.64	NaN	NaN	NaN	-1417.3	330.46	233.16	-1333.3	294.52	229.48	-1394.9	260.95	250.01	-1364.1	362.77	217.25	-1295.4	143.35	244.47	-1288.5	170.97	332.99	NaN	NaN	NaN	-1316.8	50.05	327.96	-1323	48.037	266.5	-1164.2	125.93	221.69	NaN	NaN	NaN	-1094.7	192.6	280.17	-1677.6	1548.1	345.45	-1733.4	1276	344.05
4	0.0125	NaN	NaN	NaN	-1601.6	1490.8	516.34	-1627.7	1495.9	166.18	-1571.2	1808.3	337.2	NaN	NaN	NaN	NaN	NaN	NaN	-1728	1071.6	371.15	-1729.4	1073.3	291.42	-1607.2	978.72	522.61	-1609.1	969.76	163.83	-1627.1	1129.6	502.53	-1596.2	1121.3	182.02	-1743.6	1039	335.67	-1659.1	736.73	495.25	-1609.9	650.12	458.87	-1695.2	657.59	470.52	-1586.5	730.07	483.33	-1702.2	542.69	452.76	-1682.3	551.9	324.44	-1806.7	334.56	431.68	-1759.6	256.76	409.91	-1829.6	262.41	410.21	NaN	NaN	NaN	-1840.1	131.67	378.66	-1818.1	141.25	295.08	-1910	97.254	326.97	-1901.6	64.096	297.9	-1907.9	66.533	361.7	-1732.1	43.663	412.18	-1702.2	47.984	292.18	-1636	53.412	340.46	-1468	733.48	184.46	NaN	NaN	NaN	-1460.6	644.36	203.96	-1421	765.09	229.97	-1446.3	555.15	223.5	NaN	NaN	NaN	-1410.9	329.65	233.47	-1327.3	294.17	230.9	-1388.6	260.15	250.42	-1357.1	361.99	218.96	-1289.3	142.98	245.86	-1283.1	170.14	334.23	NaN	NaN	NaN	-1312.2	49.235	328.77	-1316.6	47.531	267.31	-1158	126.34	223.94	NaN	NaN	NaN	-1089.1	193.07	283.07	-1672.6	1547.5	345.24	-1728.4	1275.3	343.88
5	0.016667	NaN	NaN	NaN	-1596.2	1490	516.18	-1622.6	1495.1	165.98	-1566.3	1807.6	337.06	NaN	NaN	NaN	NaN	NaN	NaN	-1722.7	1070.7	370.97	-1724.3	1072.5	291.23	-1602.1	978.18	522.52	-1603.8	968.96	163.8	-1621.7	1128.9	502.29	-1590.9	1120.3	181.84	-1738.3	1038.2	335.52	-1654.3	736.3	495.16	-1605.3	649.56	458.85	-1690.3	657.15	470.58	-1581.2	729.66	482.89	-1697.8	542.26	452.75	-1677.8	551.4	324.48	-1804.2	335.05	431.71	-1756.6	257.28	409.39	-1827.4	263.04	410.31	NaN	NaN	NaN	-1839.3	132.39	378.73	-1817.7	142.05	295.21	-1909.4	98.503	327.03	-1901.3	65.333	297.93	-1907.6	67.719	361.73	-1732	43.724	412.2	-1702	47.918	292.13	-1635.9	53.112	340.53	-1463.1	732.45	185.07	NaN	NaN	NaN	-1455.9	643.39	204.87	-1416	764.03	230.35	-1441.4	554.39	224.37	NaN	NaN	NaN	-1404.5	328.8	233.82	-1321.3	293.7	232.34	-1382.4	259.31	250.89	-1350.2	361.15	220.64	-1283.2	142.5	247.28	-1277.9	169.24	335.52	NaN	NaN	NaN	-1307.6	48.37	329.61	-1310.4	46.957	268.16	-1151.8	126.54	226.26	NaN	NaN	NaN	-1083.6	193.34	286.05	-1667.4	1546.8	345.03	-1723.1	1274.5	343.72
6	0.020833	NaN	NaN	NaN	-1590.6	1489.3	516.02	-1617.3	1494.3	165.77	-1561.4	1806.9	336.9	NaN	NaN	NaN	NaN	NaN	NaN	-1717.2	1069.9	370.8	-1719	1071.7	291.06	-1596.9	977.64	522.42	-1598.4	968.15	163.78	-1616.3	1128.2	502.07	-1585.4	1119.4	181.66	-1732.8	1037.3	335.38	-1649.4	735.87	495.08	-1600.6	648.96	458.85	-1685.2	656.69	470.66	-1575.8	729.28	482.41	-1693.2	541.81	452.76	-1673.2	550.9	324.55	-1801.6	335.57	431.74	-1753.8	257.76	408.93	-1825.1	263.69	410.44	NaN	NaN	NaN	-1838.3	133.17	378.82	-1817.3	142.9	295.33	-1908.8	99.832	327.11	-1901	66.652	297.97	-1907.2	68.98	361.78	-1732	43.784	412.22	-1701.8	47.86	292.09	-1635.9	52.814	340.59	-1458.1	731.43	185.68	NaN	NaN	NaN	-1451.1	642.41	205.77	-1410.8	762.97	230.74	-1436.2	553.62	225.23	NaN	NaN	NaN	-1398.2	327.93	234.22	-1315.4	293.12	233.8	-1376.4	258.42	251.4	-1343.5	360.26	222.29	-1277.2	141.91	248.72	-1272.8	168.27	336.83	NaN	NaN	NaN	-1303.1	47.459	330.49	-1304.4	46.314	269.04	-1145.8	126.52	228.62	NaN	NaN	NaN	-1078.3	193.36	289.07	-1662	1546.1	344.82	-1717.8	1273.8	343.56
7	0.025	NaN	NaN	NaN	-1585	1488.5	515.84	-1612	1493.5	165.56	-1556.3	1806.3	336.75	NaN	NaN	NaN	NaN	NaN	NaN	-1711.6	1069.1	370.63	-1713.6	1070.9	290.89	-1591.5	977.1	522.32	-1592.9	967.32	163.77	-1610.6	1127.4	501.86	-1579.9	1118.5	181.47	-1727.3	1036.5	335.24	-1644.3	735.45	495.02	-1595.9	648.3	458.89	-1679.8	656.22	470.77	-1570.1	728.93	481.91	-1688.5	541.36	452.78	-1668.4	550.38	324.63	-1798.9	336.12	431.8	-1751.1	258.21	408.55	-1822.7	264.38	410.6	NaN	NaN	NaN	-1837.4	133.99	378.93	-1816.7	143.78	295.46	-1908.2	101.24	327.2	-1900.7	68.058	298.03	-1906.8	70.32	361.84	-1731.9	43.843	412.24	-1701.5	47.812	292.05	-1635.8	52.519	340.65	-1453	730.42	186.3	NaN	NaN	NaN	-1446.1	641.45	206.66	-1405.5	761.91	231.16	-1431	552.83	226.08	NaN	NaN	NaN	-1392	327.03	234.67	-1309.6	292.42	235.26	-1370.5	257.49	251.98	-1336.9	359.32	223.89	-1271.5	141.2	250.16	-1267.9	167.23	338.17	NaN	NaN	NaN	-1298.7	46.509	331.39	-1298.7	45.606	269.95	-1140	126.24	231.02	NaN	NaN	NaN	-1073.1	193.11	292.13	-1656.5	1545.4	344.62	-1712.3	1273.1	343.41
8	0.029167	NaN	NaN	NaN	-1579.2	1487.8	515.66	-1606.5	1492.7	165.35	-1551.1	1805.6	336.58	NaN	NaN	NaN	NaN	NaN	NaN	-1706	1068.3	370.46	-1708.1	1070.1	290.73	-1586	976.57	522.21	-1587.2	966.48	163.77	-1604.9	1126.7	501.66	-1574.3	1117.6	181.29	-1721.6	1035.7	335.1	-1639.1	735.04	494.96	-1591.2	647.59	458.96	-1674.4	655.74	470.91	-1564.3	728.61	481.39	-1683.6	540.91	452.83	-1663.6	549.86	324.73	-1796.1	336.7	431.87	-1748.5	258.61	408.23	-1820.1	265.09	410.8	NaN	NaN	NaN	-1836.4	134.88	379.05	-1816.1	144.7	295.6	-1907.6	102.74	327.32	-1900.3	69.555	298.1	-1906.4	71.741	361.91	-1731.8	43.899	412.25	-1701.3	47.774	292.02	-1635.7	52.231	340.7	-1447.7	729.43	186.92	NaN	NaN	NaN	-1441	640.5	207.54	-1400.1	760.86	231.59	-1425.6	552.04	226.91	NaN	NaN	NaN	-1386.1	326.09	235.18	-1304	291.58	236.72	-1364.9	256.51	252.61	-1330.5	358.31	225.44	-1266.1	140.36	251.61	-1263.2	166.11	339.53	NaN	NaN	NaN	-1294.6	45.527	332.31	-1293.4	44.843	270.87	-1134.5	125.69	233.43	NaN	NaN	NaN	-1068.2	192.57	295.19	-1650.9	1544.7	344.41	-1706.7	1272.3	343.27
9	0.033333	NaN	NaN	NaN	-1573.4	1487	515.46	-1601	1491.8	165.13	-1545.9	1804.9	336.4	NaN	NaN	NaN	NaN	NaN	NaN	-1700.3	1067.5	370.29	-1702.5	1069.3	290.58	-1580.5	976.05	522.1	-1581.6	965.64	163.77	-1599.1	1126	501.46	-1568.6	1116.7	181.1	-1715.9	1034.9	334.97	-1633.8	734.64	494.92	-1586.5	646.83	459.08	-1668.7	655.25	471.08	-1558.4	728.34	480.86	-1678.6	540.46	452.9	-1658.6	549.33	324.86	-1793.2	337.32	431.97	-1746.2	258.97	407.96	-1817.5	265.83	411.04	NaN	NaN	NaN	-1835.4	135.82	379.2	-1815.5	145.67	295.74	-1906.9	104.32	327.45	-1900	71.147	298.18	-1906	73.248	362.01	-1731.7	43.954	412.27	-1701.1	47.749	291.99	-1635.6	51.95	340.74	-1442.2	728.46	187.53	NaN	NaN	NaN	-1435.7	639.57	208.39	-1394.6	759.82	232.04	-1420.2	551.24	227.73	NaN	NaN	NaN	-1380.4	325.12	235.75	-1298.7	290.61	238.18	-1359.5	255.5	253.29	-1324.4	357.24	226.93	-1261	139.4	253.05	-1258.8	164.92	340.9	NaN	NaN	NaN	-1290.7	44.52	333.23	-1288.4	44.037	271.79	-1129.2	124.88	235.83	NaN	NaN	NaN	-1063.5	191.71	298.25	-1645.2	1544	344.2	-1701	1271.6	343.13
10	0.0375	NaN	NaN	NaN	-1567.6	1486.3	515.25	-1595.4	1491	164.91	-1540.5	1804.3	336.22	NaN	NaN	NaN	NaN	NaN	NaN	-1694.5	1066.7	370.13	-1696.9	1068.4	290.44	-1574.9	975.55	521.98	-1575.8	964.8	163.78	-1593.3	1125.3	501.28	-1562.8	1115.9	180.92	-1710.2	1034.1	334.85	-1628.5	734.25	494.9	-1581.8	646.03	459.25	-1663	654.75	471.29	-1552.4	728.1	480.34	-1673.5	540	452.99	-1653.4	548.8	325.02	-1790.3	337.96	432.1	-1744	259.3	407.75	-1814.7	266.61	411.33	NaN	NaN	NaN	-1834.3	136.84	379.36	-1814.7	146.69	295.89	-1906.2	106	327.61	-1899.6	72.838	298.27	-1905.5	74.845	362.11	-1731.5	44.006	412.28	-1700.9	47.736	291.96	-1635.5	51.678	340.78	-1436.7	727.51	188.14	NaN	NaN	NaN	-1430.4	638.66	209.22	-1389	758.8	232.51	-1414.7	550.44	228.53	NaN	NaN	NaN	-1375	324.12	236.4	-1293.6	289.51	239.61	-1354.4	254.46	254.03	-1318.5	356.1	228.36	-1256.1	138.33	254.47	-1254.7	163.65	342.27	NaN	NaN	NaN	-1287.1	43.501	334.14	-1283.8	43.202	272.71	-1124.3	123.79	238.21	NaN	NaN	NaN	-1059.1	190.53	301.26	-1639.5	1543.3	343.99	-1695.3	1270.9	342.99
11	0.041667	NaN	NaN	NaN	-1561.8	1485.6	515.02	-1589.8	1490.3	164.68	-1535.2	1803.7	336.03	NaN	NaN	NaN	NaN	NaN	NaN	-1688.7	1065.9	369.98	-1691.1	1067.6	290.3	-1569.2	975.07	521.86	-1570	963.95	163.81	-1587.4	1124.7	501.1	-1557	1115	180.73	-1704.4	1033.3	334.73	-1623.1	733.87	494.9	-1577.1	645.2	459.47	-1657.1	654.24	471.53	-1546.3	727.89	479.83	-1668.3	539.55	453.11	-1648.1	548.27	325.2	-1787.2	338.64	432.26	-1742	259.59	407.58	-1811.8	267.42	411.65	NaN	NaN	NaN	-1833.2	137.93	379.54	-1813.8	147.76	296.06	-1905.5	107.78	327.78	-1899.1	74.636	298.38	-1905	76.535	362.23	-1731.4	44.057	412.29	-1700.7	47.738	291.93	-1635.4	51.416	340.82	-1431.1	726.6	188.75	NaN	NaN	NaN	-1425	637.79	210.03	-1383.3	757.8	232.99	-1409.2	549.63	229.31	NaN	NaN	NaN	-1369.8	323.09	237.12	-1288.7	288.3	241.03	-1349.5	253.37	254.83	-1312.9	354.91	229.73	-1251.7	137.15	255.87	-1250.9	162.32	343.65	NaN	NaN	NaN	-1283.8	42.481	335.04	-1279.6	42.358	273.61	-1119.7	122.43	240.55	NaN	NaN	NaN	-1054.9	189.02	304.22	-1633.7	1542.6	343.77	-1689.6	1270.2	342.85
